<mxfile host="app.diagrams.net" modified="2023-10-08T06:54:05.377Z" agent="Mozilla/5.0 (Macintosh; Intel Mac OS X 10_15_7) AppleWebKit/537.36 (KHTML, like Gecko) Chrome/117.0.0.0 Safari/537.36" etag="NlO3n3n88pAm1TWV0z2j" version="22.0.4" type="github">
  <diagram id="C5RBs43oDa-KdzZeNtuy" name="Page-1">
    <mxGraphModel dx="1853" dy="1823" grid="1" gridSize="10" guides="1" tooltips="1" connect="1" arrows="1" fold="1" page="1" pageScale="1" pageWidth="827" pageHeight="1169" math="0" shadow="0">
      <root>
        <mxCell id="WIyWlLk6GJQsqaUBKTNV-0" />
        <mxCell id="WIyWlLk6GJQsqaUBKTNV-1" parent="WIyWlLk6GJQsqaUBKTNV-0" />
        <mxCell id="d-C2ntr0v8hS8OVYdZ0Y-1" style="edgeStyle=orthogonalEdgeStyle;rounded=0;orthogonalLoop=1;jettySize=auto;html=1;exitX=0.5;exitY=1;exitDx=0;exitDy=0;exitPerimeter=0;entryX=0.5;entryY=0;entryDx=0;entryDy=0;entryPerimeter=0;shadow=0;" edge="1" parent="WIyWlLk6GJQsqaUBKTNV-1" source="d-C2ntr0v8hS8OVYdZ0Y-0" target="d-C2ntr0v8hS8OVYdZ0Y-2">
          <mxGeometry relative="1" as="geometry">
            <mxPoint x="205" y="70" as="targetPoint" />
          </mxGeometry>
        </mxCell>
        <mxCell id="d-C2ntr0v8hS8OVYdZ0Y-0" value="城市集合" style="strokeWidth=2;html=1;shape=mxgraph.flowchart.direct_data;whiteSpace=wrap;" vertex="1" parent="WIyWlLk6GJQsqaUBKTNV-1">
          <mxGeometry x="155" y="-30" width="100" height="60" as="geometry" />
        </mxCell>
        <mxCell id="d-C2ntr0v8hS8OVYdZ0Y-2" value="静态酒店id" style="strokeWidth=2;html=1;shape=mxgraph.flowchart.direct_data;whiteSpace=wrap;" vertex="1" parent="WIyWlLk6GJQsqaUBKTNV-1">
          <mxGeometry x="155" y="60" width="100" height="60" as="geometry" />
        </mxCell>
        <mxCell id="d-C2ntr0v8hS8OVYdZ0Y-5" value="" style="rounded=1;whiteSpace=wrap;html=1;" vertex="1" parent="WIyWlLk6GJQsqaUBKTNV-1">
          <mxGeometry x="-40" y="210" width="130" height="330" as="geometry" />
        </mxCell>
        <mxCell id="d-C2ntr0v8hS8OVYdZ0Y-3" value="调用接口" style="rounded=1;whiteSpace=wrap;html=1;" vertex="1" parent="WIyWlLk6GJQsqaUBKTNV-1">
          <mxGeometry x="-35" y="230" width="120" height="60" as="geometry" />
        </mxCell>
        <mxCell id="d-C2ntr0v8hS8OVYdZ0Y-6" value="解析数据" style="rounded=1;whiteSpace=wrap;html=1;" vertex="1" parent="WIyWlLk6GJQsqaUBKTNV-1">
          <mxGeometry x="-35" y="310" width="120" height="60" as="geometry" />
        </mxCell>
        <mxCell id="d-C2ntr0v8hS8OVYdZ0Y-7" value="数据落库" style="rounded=1;whiteSpace=wrap;html=1;" vertex="1" parent="WIyWlLk6GJQsqaUBKTNV-1">
          <mxGeometry x="-35" y="470" width="120" height="60" as="geometry" />
        </mxCell>
        <mxCell id="d-C2ntr0v8hS8OVYdZ0Y-8" value="数据组装" style="rounded=1;whiteSpace=wrap;html=1;" vertex="1" parent="WIyWlLk6GJQsqaUBKTNV-1">
          <mxGeometry x="-35" y="390" width="120" height="60" as="geometry" />
        </mxCell>
        <mxCell id="d-C2ntr0v8hS8OVYdZ0Y-9" value="" style="rounded=1;whiteSpace=wrap;html=1;" vertex="1" parent="WIyWlLk6GJQsqaUBKTNV-1">
          <mxGeometry x="140" y="210" width="130" height="330" as="geometry" />
        </mxCell>
        <mxCell id="d-C2ntr0v8hS8OVYdZ0Y-10" value="调用接口" style="rounded=1;whiteSpace=wrap;html=1;" vertex="1" parent="WIyWlLk6GJQsqaUBKTNV-1">
          <mxGeometry x="145" y="230" width="120" height="60" as="geometry" />
        </mxCell>
        <mxCell id="d-C2ntr0v8hS8OVYdZ0Y-11" value="解析数据" style="rounded=1;whiteSpace=wrap;html=1;" vertex="1" parent="WIyWlLk6GJQsqaUBKTNV-1">
          <mxGeometry x="145" y="310" width="120" height="60" as="geometry" />
        </mxCell>
        <mxCell id="d-C2ntr0v8hS8OVYdZ0Y-12" value="数据落库" style="rounded=1;whiteSpace=wrap;html=1;" vertex="1" parent="WIyWlLk6GJQsqaUBKTNV-1">
          <mxGeometry x="145" y="470" width="120" height="60" as="geometry" />
        </mxCell>
        <mxCell id="d-C2ntr0v8hS8OVYdZ0Y-13" value="数据组装" style="rounded=1;whiteSpace=wrap;html=1;" vertex="1" parent="WIyWlLk6GJQsqaUBKTNV-1">
          <mxGeometry x="145" y="390" width="120" height="60" as="geometry" />
        </mxCell>
        <mxCell id="d-C2ntr0v8hS8OVYdZ0Y-14" value="...." style="rounded=1;whiteSpace=wrap;html=1;" vertex="1" parent="WIyWlLk6GJQsqaUBKTNV-1">
          <mxGeometry x="330" y="210" width="126" height="330" as="geometry" />
        </mxCell>
        <mxCell id="d-C2ntr0v8hS8OVYdZ0Y-15" value="" style="shape=singleArrow;direction=south;whiteSpace=wrap;html=1;" vertex="1" parent="WIyWlLk6GJQsqaUBKTNV-1">
          <mxGeometry x="172.5" y="140" width="65" height="50" as="geometry" />
        </mxCell>
      </root>
    </mxGraphModel>
  </diagram>
</mxfile>
